<?xml version="1.0" encoding="UTF-8"?>
<svg width="149px" height="149px" viewBox="0 0 149 149" version="1.1" xmlns="http://www.w3.org/2000/svg" xmlns:xlink="http://www.w3.org/1999/xlink">
    <title>add_photo</title>
    <g id="Admin" stroke="none" stroke-width="1" fill="none" fill-rule="evenodd">
        <g id="add-product-popup" transform="translate(-64.000000, -143.000000)">
            <g id="Group" transform="translate(64.000000, 122.000000)">
                <g id="add_photo" transform="translate(0.000000, 21.000000)">
                    <rect id="Rectangle" fill="#EBF4FE" x="0" y="0" width="149" height="149" rx="4"></rect>
                    <g id="add" transform="translate(51.000000, 53.000000)" fill="#AEBFD1" fill-rule="nonzero">
                        <path d="M39.65625,0 L7.34375,0 C3.29428866,0 0,3.31725974 0,7.39495798 L0,33.2773109 C0,37.3550092 3.29428866,40.6722689 7.34375,40.6722689 L24.7851562,40.6722689 C25.485466,40.6722689 26.1248169,40.2711069 26.4335556,39.6377692 C26.7419357,39.0047926 26.6659164,38.2497702 26.2370529,37.6922597 L21.4349289,31.4426536 L34.7447586,14.3948923 L43.328125,24.7059481 L43.328125,27.8235294 C43.328125,28.8446691 44.1499939,29.6722689 45.1640625,29.6722689 C46.1781311,29.6722689 47,28.8446691 47,27.8235294 L47,7.39495798 C47,3.31725974 43.7057113,0 39.65625,0 Z M36.1062927,10.2745864 C35.7509384,9.84778753 35.2241821,9.60405729 34.6705322,9.61380644 C34.1172409,9.6224724 33.5976562,9.88172928 33.2559281,10.3197216 L19.117775,28.4276195 L14.3034591,22.162848 C13.9556351,21.7100512 13.4195557,21.4453782 12.8515625,21.4453782 C12.8508454,21.4453782 12.8497696,21.4453782 12.8490524,21.4453782 C12.2799836,21.4461003 11.7431869,21.7125788 11.3964386,22.1668199 L7.35594173,27.4559481 C6.73774724,28.2654937 6.88799284,29.4260111 7.69157405,30.0485162 C8.49551392,30.6713826 9.64799495,30.5197282 10.2661896,29.7105435 L12.8558655,26.3207065 L21.0429993,36.9747899 L7.34375,36.9747899 C5.31919856,36.9747899 3.671875,35.3159796 3.671875,33.2773109 L3.671875,7.39495798 C3.671875,5.35628934 5.31919856,3.69747899 7.34375,3.69747899 L39.65625,3.69747899 C41.6808014,3.69747899 43.328125,5.35628934 43.328125,7.39495798 L43.328125,18.9503019 L36.1062927,10.2745864 Z M12.8515625,6.65546218 C9.81437679,6.65546218 7.34375,9.14331666 7.34375,12.2016807 C7.34375,15.2600447 9.81437679,17.7478992 12.8515625,17.7478992 C15.8887482,17.7478992 18.359375,15.2600447 18.359375,12.2016807 C18.359375,9.14331666 15.8887482,6.65546218 12.8515625,6.65546218 Z M12.8515625,14.0504202 C11.8392868,14.0504202 11.015625,13.221015 11.015625,12.2016807 C11.015625,11.1823464 11.8392868,10.3529412 12.8515625,10.3529412 C13.8638382,10.3529412 14.6875,11.1823464 14.6875,12.2016807 C14.6875,13.221015 13.8638382,14.0504202 12.8515625,14.0504202 Z M47,35.2184874 C47,36.2396271 46.1781311,37.0672269 45.1640625,37.0672269 L40.1152344,37.0672269 L40.1152344,42.1512605 C40.1152344,43.1724002 39.2933655,44 38.2792969,44 C37.2652283,44 36.4433594,43.1724002 36.4433594,42.1512605 L36.4433594,37.0672269 L31.3945312,37.0672269 C30.3804626,37.0672269 29.5585938,36.2396271 29.5585938,35.2184874 C29.5585938,34.1973477 30.3804626,33.3697479 31.3945312,33.3697479 L36.4433594,33.3697479 L36.4433594,28.2857143 C36.4433594,27.2645746 37.2652283,26.4369748 38.2792969,26.4369748 C39.2933655,26.4369748 40.1152344,27.2645746 40.1152344,28.2857143 L40.1152344,33.3697479 L45.1640625,33.3697479 C46.1781311,33.3697479 47,34.1973477 47,35.2184874 Z" id="Shape"></path>
                    </g>
                </g>
            </g>
        </g>
    </g>
</svg>