<?xml version="1.0" encoding="UTF-8"?>
<svg width="15px" height="16px" viewBox="0 0 15 16" version="1.1" xmlns="http://www.w3.org/2000/svg" xmlns:xlink="http://www.w3.org/1999/xlink">
    <title>95EEC879-F313-43CD-8184-24D14F0B5207</title>
    <g id="Client-with-trainer" stroke="none" stroke-width="1" fill="none" fill-rule="evenodd">
        <g id="calendar-month" transform="translate(-956.000000, -41.000000)" fill="#3796F6" fill-rule="nonzero">
            <g id="add_new" transform="translate(940.000000, 30.000000)">
                <g id="calendar_icon" transform="translate(16.000000, 11.000000)">
                    <path d="M10.8854253,1.10578213e-12 C11.1720512,1.10578213e-12 11.4043813,0.2242818 11.4043813,0.500978474 L11.4043813,0.500978474 L11.4043813,1.51937378 L12.7862961,1.51937378 C14.0069129,1.51937378 15,2.47805871 15,3.65639139 L15,3.65639139 L15,13.8627319 C15,15.0410959 14.0069454,15.9997495 12.7862961,15.9997495 L12.7862961,15.9997495 L2.2137039,15.9997495 C0.99305464,15.9997495 -4.4408921e-15,15.0410959 -4.4408921e-15,13.8627319 L-4.4408921e-15,13.8627319 L-4.4408921e-15,3.65639139 C-4.4408921e-15,2.4780274 0.99305464,1.51937378 2.2137039,1.51937378 L2.2137039,1.51937378 L3.59565115,1.51937378 L3.59565115,0.500978474 C3.59565115,0.2242818 3.82798124,1.10578213e-12 4.1146071,1.10578213e-12 C4.40123295,1.10578213e-12 4.63356304,0.2242818 4.63356304,0.500978474 L4.63356304,0.500978474 L4.63356304,1.51937378 L10.3664694,1.51937378 L10.3664694,0.500978474 C10.3664694,0.2242818 10.5987995,1.10578213e-12 10.8854253,1.10578213e-12 Z M13.4620881,6.45 L1.537,6.45 L1.53791189,13.8627319 C1.53791189,14.1770183 1.78562162,14.4447184 2.11320162,14.4907937 L2.2137039,14.4977926 L12.7862961,14.4977926 C13.1281691,14.4977926 13.4069606,14.2586661 13.4548246,13.9554693 L13.4620881,13.8627632 L13.4620881,6.45 Z" id="Combined-Shape"></path>
                </g>
            </g>
        </g>
    </g>
</svg>