<?xml version="1.0" encoding="UTF-8"?>
<svg width="24px" height="24px" viewBox="0 0 24 24" version="1.1" xmlns="http://www.w3.org/2000/svg" xmlns:xlink="http://www.w3.org/1999/xlink">
    <title>66410DE4-21B9-449A-A662-54BF30C3B569</title>
    <g id="Admin" stroke="none" stroke-width="1" fill="none" fill-rule="evenodd">
        <g id="order---request" transform="translate(-1182.000000, -168.000000)">
            <g id="copy_icon" transform="translate(1182.000000, 168.000000)">
                <rect id="Rectangle" x="0" y="0" width="24" height="24"></rect>
                <g id="document-copy" transform="translate(3.000000, 3.000000)">
                    <rect id="Rectangle" x="0" y="0" width="18" height="18"></rect>
                    <path d="M4,3 L12,3 C13.1045695,3 14,3.8954305 14,5 L14,15 C14,16.1045695 13.1045695,17 12,17 L4,17 C2.8954305,17 2,16.1045695 2,15 L2,5 C2,3.8954305 2.8954305,3 4,3 Z" id="Rectangle" stroke="#3796F6" stroke-width="1.5"></path>
                    <path d="M7,0 L15,0 C16.1045695,-2.02906125e-16 17,0.8954305 17,2 L17,12 L17,12" id="Path-7" stroke="#3796F6" stroke-width="1.5" stroke-linecap="round"></path>
                </g>
            </g>
        </g>
    </g>
</svg>