<?xml version="1.0" encoding="UTF-8"?>
<svg width="64px" height="64px" viewBox="0 0 64 64" version="1.1" xmlns="http://www.w3.org/2000/svg" xmlns:xlink="http://www.w3.org/1999/xlink">
    <title>customer_statements_active</title>
    <defs>
        <rect id="path-1" x="0" y="0" width="64" height="64" rx="10"></rect>
        <filter x="-21.9%" y="-15.6%" width="143.8%" height="143.8%" filterUnits="objectBoundingBox" id="filter-2">
            <feOffset dx="0" dy="4" in="SourceAlpha" result="shadowOffsetOuter1"></feOffset>
            <feGaussianBlur stdDeviation="4" in="shadowOffsetOuter1" result="shadowBlurOuter1"></feGaussianBlur>
            <feColorMatrix values="0 0 0 0 0.0941176471   0 0 0 0 0.443137255   0 0 0 0 0.8  0 0 0 0.25 0" type="matrix" in="shadowBlurOuter1"></feColorMatrix>
        </filter>
    </defs>
    <g id="customer_statements_active" stroke="none" stroke-width="1" fill="none" fill-rule="evenodd">
        <g id="Group">
            <g id="Rectangle">
                <use fill="black" fill-opacity="1" filter="url(#filter-2)" xlink:href="#path-1"></use>
                <use fill="#3796F6" fill-rule="evenodd" xlink:href="#path-1"></use>
            </g>
            <g id="Group-2" transform="translate(16.000000, 16.000000)" fill="#FFFFFF">
                <path d="M16.5351985,15.9998796 C16.1948152,16.5882535 16,17.271376 16,18 L16,18 L16,28 L1,28 C0.44771525,28 6.76353751e-17,27.5522847 0,27 L0,22 C-4.05812251e-16,18.6862915 2.6862915,16 6,16 Z M12,0 C15.8659932,0 19,3.13400675 19,7 C19,10.8659932 15.8659932,14 12,14 C8.13400675,14 5,10.8659932 5,7 C5,3.13400675 8.13400675,0 12,0 Z" id="Combined-Shape"></path>
                <g id="orders" transform="translate(18.000000, 16.000000)" fill-rule="nonzero">
                    <path d="M12,0 C13.1045695,0 14,0.8954305 14,2 L14,16 L11,15 L9,16 L7,15 L5,16 L3,15 L0,16 L0,2 C0,0.8954305 0.8954305,0 2,0 L12,0 Z M7,8.25 L4,8.25 L3.89822944,8.25684662 C3.53215388,8.30650904 3.25,8.62030423 3.25,9 C3.25,9.41421356 3.58578644,9.75 4,9.75 L4,9.75 L7,9.75 L7.10177056,9.74315338 C7.46784612,9.69349096 7.75,9.37969577 7.75,9 C7.75,8.58578644 7.41421356,8.25 7,8.25 L7,8.25 Z M10,5.25 L4,5.25 L3.89822944,5.25684662 C3.53215388,5.30650904 3.25,5.62030423 3.25,6 C3.25,6.41421356 3.58578644,6.75 4,6.75 L4,6.75 L10,6.75 L10.1017706,6.74315338 C10.4678461,6.69349096 10.75,6.37969577 10.75,6 C10.75,5.58578644 10.4142136,5.25 10,5.25 L10,5.25 Z" id="Combined-Shape"></path>
                </g>
            </g>
        </g>
    </g>
</svg>