<?xml version="1.0" encoding="UTF-8"?>
<svg width="20px" height="20px" viewBox="0 0 20 20" version="1.1" xmlns="http://www.w3.org/2000/svg" xmlns:xlink="http://www.w3.org/1999/xlink">
    <title>CFCF80CF-40C4-44AD-9FF9-3EF6E9FF50A9</title>
    <g id="Admin" stroke="none" stroke-width="1" fill="none" fill-rule="evenodd">
        <g id="order---invoice-new" transform="translate(-264.000000, -627.000000)">
            <g id="4-copy" transform="translate(224.000000, 224.000000)">
                <g id="Group-2-Copy-3" transform="translate(40.000000, 322.000000)">
                    <g id="Group-3" transform="translate(0.000000, 56.000000)">
                        <g id="document-copy" transform="translate(0.000000, 25.000000)">
                            <rect id="Rectangle" x="0" y="0" width="20" height="20"></rect>
                            <path d="M5,1 L11.4171573,1 C11.4702006,1 11.5210714,1.02107137 11.5585786,1.05857864 L16.9414214,6.44142136 C16.9789286,6.47892863 17,6.52979941 17,6.58284271 L17,17 C17,18.1045695 16.1045695,19 15,19 L5,19 C3.8954305,19 3,18.1045695 3,17 L3,3 C3,1.8954305 3.8954305,1 5,1 Z" id="Rectangle" stroke="#3796F6" stroke-width="1.5"></path>
                            <path d="M11,1 L11,6 C11,6.55228475 11.4477153,7 12,7 L17,7 L17,7" id="Path-2" stroke="#3796F6" stroke-width="1.5"></path>
                        </g>
                    </g>
                </g>
            </g>
        </g>
    </g>
</svg>