<?xml version="1.0" encoding="UTF-8"?>
<svg width="16px" height="16px" viewBox="0 0 16 16" version="1.1" xmlns="http://www.w3.org/2000/svg" xmlns:xlink="http://www.w3.org/1999/xlink">
    <title>FC1C9F76-0684-4029-8A68-17D3FC955590</title>
    <g id="Client" stroke="none" stroke-width="1" fill="none" fill-rule="evenodd">
        <g id="orders-client" transform="translate(-1084.000000, -805.000000)">
            <g id="table" transform="translate(64.000000, 170.000000)">
                <g id="1-copy-8" transform="translate(40.000000, 627.000000)">
                    <g id="complete_btn-copy" transform="translate(972.000000, 0.000000)">
                        <g id="pdf-copy-2" transform="translate(8.000000, 8.000000)">
                            <rect id="Rectangle" x="0" y="0" width="16" height="16"></rect>
                            <path d="M12.2,9.15 C12.5796958,9.15 12.893491,9.43215388 12.9431534,9.79822944 L12.95,9.9 L12.95,11.15 L14.2,11.15 C14.6142136,11.15 14.95,11.4857864 14.95,11.9 C14.95,12.2796958 14.6678461,12.593491 14.3017706,12.6431534 L14.2,12.65 L12.95,12.65 L12.95,13.9 C12.95,14.3142136 12.6142136,14.65 12.2,14.65 C11.8203042,14.65 11.506509,14.3678461 11.4568466,14.0017706 L11.45,13.9 L11.45,12.65 L10.2,12.65 C9.78578644,12.65 9.45,12.3142136 9.45,11.9 C9.45,11.5203042 9.73215388,11.206509 10.0982294,11.1568466 L10.2,11.15 L11.45,11.15 L11.45,9.9 C11.45,9.48578644 11.7857864,9.15 12.2,9.15 Z M8.85029437,1.85 C9.04257633,1.85 9.22829548,1.91365309 9.37928005,2.02929015 L9.46547727,2.1048171 L12.6951829,5.33452273 C12.8311468,5.4704866 12.9174605,5.6468194 12.942455,5.83534937 L12.95,5.94970563 L12.9496054,7.97012305 C12.7067904,7.92408807 12.4562083,7.9 12.2,7.9 C11.9434413,7.9 11.692524,7.92415402 11.4493982,7.9703121 L11.449,6.95 L9.2,6.95 C8.49827349,6.95 7.92159619,6.41460073 7.85617992,5.73001401 L7.85,5.6 L7.85,3.349 L5,3.35 C4.7790861,3.35 4.59535247,3.50918764 4.5572501,3.71911193 L4.55,3.8 L4.55,12.2 C4.55,12.4209139 4.70918764,12.6046475 4.91911193,12.6427499 L5,12.65 L8.2703121,12.6506018 C8.37431274,13.1983985 8.59002011,13.7066408 8.89284216,14.1507368 L5,14.15 C3.97199725,14.15 3.12978901,13.3545192 3.05534859,12.3455308 L3.05,12.2 L3.05,3.8 C3.05,2.77199725 3.84548085,1.92978901 4.85446921,1.85534859 L5,1.85 L8.85029437,1.85 Z M9.35,4.111 L9.35,5.449 L10.688,5.449 L9.35,4.111 Z" id="Combined-Shape" fill="#3796F6" fill-rule="nonzero"></path>
                        </g>
                    </g>
                </g>
            </g>
        </g>
    </g>
</svg>