<?xml version="1.0" encoding="UTF-8"?>
<svg width="32px" height="32px" viewBox="0 0 32 32" version="1.1" xmlns="http://www.w3.org/2000/svg" xmlns:xlink="http://www.w3.org/1999/xlink">
    <title>97C40E88-6CCB-4809-9998-67820BCCDD9E</title>
    <g id="Admin" stroke="none" stroke-width="1" fill="none" fill-rule="evenodd">
        <g id="order---add-invoice" transform="translate(-362.000000, -341.000000)">
            <g id="4-copy" transform="translate(224.000000, 224.000000)">
                <g id="Group-2" transform="translate(40.000000, 32.000000)">
                    <g id="email-copy-4" transform="translate(0.000000, 56.000000)">
                        <g id="edit" transform="translate(98.000000, 29.000000)">
                            <rect id="Rectangle" x="0" y="0" width="32" height="32" rx="16"></rect>
                            <g id="edit_pen" transform="translate(8.000000, 8.000000)">
                                <rect id="Rectangle" x="0" y="0" width="16" height="16"></rect>
                                <path d="M13.7159984,1.72984108 L13.8856181,1.88561808 L14.1143819,2.11438192 C15.1009696,3.1009696 15.1528953,4.66828181 14.2701589,5.71599839 L14.1143819,5.88561808 L6,14 L5.99549633,13.9955695 L5.99695254,13.9996759 L1.18649633,14.8138303 L1.99916851,10.000388 L2,10 L10.1143819,1.88561808 C11.1009696,0.899030399 12.6682818,0.847104731 13.7159984,1.72984108 Z M3.15549633,11.1555695 L2.81333333,13.1853333 L4.84149633,12.8415695 L3.15549633,11.1555695 Z M9.80349633,4.0795695 L3.88533333,9.99866667 L6,12.1133333 L11.9184963,6.1945695 L9.80349633,4.0795695 Z M11.1828007,2.71750898 L11.057191,2.82842712 L10.7464963,3.1375695 L12.8614963,5.2525695 L13.1715729,4.94280904 C13.6522182,4.46216376 13.6891909,3.70585568 13.282491,3.18280074 L13.1715729,3.05719096 L12.942809,2.82842712 C12.4621638,2.34778184 11.7058557,2.31080913 11.1828007,2.71750898 Z" id="Combined-Shape" fill="#3796F6" fill-rule="nonzero"></path>
                            </g>
                        </g>
                    </g>
                </g>
            </g>
        </g>
    </g>
</svg>