<?xml version="1.0" encoding="UTF-8"?>
<svg width="24px" height="24px" viewBox="0 0 24 24" version="1.1" xmlns="http://www.w3.org/2000/svg" xmlns:xlink="http://www.w3.org/1999/xlink">
    <!-- Generator: Sketch 58 (84663) - https://sketch.com -->
    <title>email</title>
    <desc>Created with Sketch.</desc>
    <g id="email" stroke="none" stroke-width="1" fill="none" fill-rule="evenodd">
        <g id="Group">
            <rect id="Rectangle" opacity="0.200000003" x="0" y="0" width="24" height="24"></rect>
            <g id="Shape-2" transform="translate(0.000000, 3.000000)" fill="#3796F6" fill-rule="nonzero">
                <path d="M21.7073,1.59872116e-14 L2.2456,1.59872116e-14 C1.0073,1.59872116e-14 4.08562073e-14,1.0073 4.08562073e-14,2.2456 L4.08562073e-14,15.7191 C4.08562073e-14,16.9574 1.0073,17.9647 2.2456,17.9647 L21.7073,17.9647 C22.9456,17.9647 23.9529,16.9574 23.9529,15.7191 L23.9529,2.2456 C23.9529,1.0073 22.9456,1.59872116e-14 21.7073,1.59872116e-14 Z M21.7073,1.49705 C21.809,1.49705 21.90575,1.51815 21.9942,1.555 L11.97645,10.23745 L1.95865,1.555 C2.0471,1.5182 2.14385,1.49705 2.24555,1.49705 L21.7073,1.49705 Z M21.7073,16.4676 L2.2456,16.4676 C1.8326,16.4676 1.49705,16.1321 1.49705,15.71905 L1.49705,3.13665 L11.48595,11.7937 C11.62705,11.91575 11.80175,11.97645 11.97645,11.97645 C12.15115,11.97645 12.32585,11.9158 12.46695,11.7937 L22.45585,3.13665 L22.45585,15.7191 C22.45585,16.1321 22.1203,16.4676 21.7073,16.4676 L21.7073,16.4676 Z" id="Shape"></path>
            </g>
        </g>
    </g>
</svg>