<?xml version="1.0" encoding="UTF-8"?>
<svg width="94px" height="32px" viewBox="0 0 94 32" version="1.1" xmlns="http://www.w3.org/2000/svg" xmlns:xlink="http://www.w3.org/1999/xlink">
    <title>76BEDCA0-AB3A-4ADA-A629-70E347A7BF6B</title>
    <g id="Client" stroke="none" stroke-width="1" fill="none" fill-rule="evenodd">
        <g id="homepage-not-authorised" transform="translate(-64.000000, -2484.000000)">
            <g id="footer" transform="translate(0.000000, 2452.000000)">
                <g id="footer_logo" transform="translate(64.000000, 32.000000)">
                    <rect id="Rectangle" x="0" y="0" width="94" height="32"></rect>
                    <path d="M21.6836755,28.071511 L21.6836755,23.2460484 L23.5519854,23.2460484 L23.5519854,22.0889016 L18.2725033,22.0889016 L18.2725033,23.2460484 L20.1408132,23.2460484 L20.1408132,28.071511 L21.6836755,28.071511 Z M26.7059727,28.1920472 C27.0568667,28.1920472 27.3769571,28.1625828 27.6662438,28.103654 C27.9555305,28.0447252 28.2635672,27.9496356 28.590354,27.8183852 L28.590354,27.8183852 L28.590354,26.6572206 L28.4296392,26.6572206 C28.2635672,26.7831138 28.0372272,26.9009714 27.7506191,27.0107932 C27.4640109,27.120615 27.1680278,27.1755259 26.8626696,27.1755259 C26.3805252,27.1755259 26.0155686,27.0817756 25.7677999,26.8942749 C25.5200312,26.7067743 25.3854325,26.4362377 25.3640039,26.0826651 L25.3640039,26.0826651 L28.6747293,26.0826651 L28.6747293,25.5764134 C28.6747293,24.8799824 28.4899073,24.3462753 28.1202632,23.9752919 C27.7506191,23.6043085 27.1988315,23.4188168 26.4649004,23.4188168 C25.669362,23.4188168 25.0432439,23.6364515 24.5865459,24.0717208 C24.1298479,24.5069901 23.9014989,25.0969475 23.9014989,25.8415928 C23.9014989,26.5942739 24.1425712,27.1741866 24.6247157,27.5813308 C25.1068602,27.988475 25.8006125,28.1920472 26.7059727,28.1920472 Z M27.2363316,25.2348943 L25.359986,25.2348943 C25.3814146,24.9161433 25.4818614,24.6844461 25.6613263,24.5398027 C25.8407912,24.3951594 26.0698098,24.3228377 26.3483822,24.3228377 C26.6483832,24.3228377 26.8693661,24.3991772 27.0113309,24.5518563 C27.1532956,24.7045354 27.2282959,24.9322148 27.2363316,25.2348943 L27.2363316,25.2348943 Z M31.876931,28.1920472 C32.176932,28.1920472 32.4508169,28.1605738 32.6985856,28.0976272 C32.9463543,28.0346806 33.1840783,27.9496356 33.4117576,27.8424924 L33.4117576,27.8424924 L33.4117576,26.6090061 L33.2068462,26.6090061 C33.1479175,26.6652563 33.0836315,26.7228458 33.0139884,26.7817746 C32.9443453,26.8407033 32.8639879,26.8969535 32.7729162,26.9505251 C32.6764873,27.0067753 32.5552815,27.0556594 32.4092989,27.0971774 C32.2633163,27.1386954 32.0992532,27.1594544 31.9171097,27.1594544 C31.526037,27.1594544 31.224027,27.046954 31.0110799,26.8219533 C30.7981328,26.5969525 30.6916592,26.2674871 30.6916592,25.8335571 C30.6916592,25.4130199 30.7954542,25.0802063 31.0030442,24.8351162 C31.2106341,24.5900261 31.5072869,24.467481 31.8930025,24.467481 C32.0671102,24.467481 32.2197893,24.4869008 32.3510398,24.5257402 C32.4822902,24.5645796 32.6028263,24.6134637 32.7126481,24.6723924 C32.8278271,24.7339998 32.9249256,24.7969464 33.0039438,24.8612324 C33.0829619,24.9255183 33.150596,24.9817685 33.2068462,25.0299829 L33.2068462,25.0299829 L33.4117576,25.0299829 L33.4117576,23.7964966 C33.1867569,23.6893534 32.9443453,23.6022996 32.684523,23.535335 C32.4247007,23.4683705 32.1407712,23.4348883 31.8327345,23.4348883 C31.4898762,23.4348883 31.1590715,23.4790849 30.8403204,23.567478 C30.5215693,23.6558712 30.2403184,23.7951574 29.9965676,23.9853366 C29.744781,24.1862301 29.548575,24.4393559 29.4079495,24.7447141 C29.267324,25.0500723 29.1970113,25.4130199 29.1970113,25.8335571 C29.1970113,26.2326656 29.2626365,26.580881 29.393887,26.8782035 C29.5251374,27.1755259 29.7099594,27.4219553 29.9483531,27.6174917 C30.1894253,27.813028 30.4726852,27.9576714 30.7981328,28.0514217 C31.1235803,28.145172 31.4831797,28.1920472 31.876931,28.1920472 Z M35.6456525,28.071511 L35.6456525,24.873286 C35.8036888,24.7795357 35.950341,24.7112319 36.0856094,24.6683746 C36.2208777,24.6255173 36.354137,24.6040886 36.4853875,24.6040886 C36.6702095,24.6040886 36.8141832,24.6268566 36.9173086,24.6723924 C37.0204339,24.7179283 37.0987824,24.79025 37.152354,24.8893575 C37.1978899,24.975072 37.2300329,25.1083314 37.2487829,25.2891356 C37.267533,25.4699398 37.276908,25.6514136 37.276908,25.8335571 L37.276908,25.8335571 L37.276908,28.071511 L38.7313772,28.071511 L38.7313772,25.1344476 C38.7313772,24.5692671 38.5940999,24.1447121 38.3195455,23.8607826 C38.044991,23.576853 37.6639629,23.4348883 37.1764612,23.4348883 C36.8871746,23.4348883 36.624004,23.4884599 36.3869497,23.5956031 C36.1498953,23.7027463 35.9027962,23.8567647 35.6456525,24.0576582 L35.6456525,24.0576582 L35.6456525,21.8197043 L34.1992191,21.8197043 L34.1992191,28.071511 L35.6456525,28.071511 Z M41.3389341,28.071511 L41.3389341,24.873286 C41.4969703,24.7795357 41.6436226,24.7112319 41.7788909,24.6683746 C41.9141592,24.6255173 42.0474186,24.6040886 42.178669,24.6040886 C42.3634911,24.6040886 42.5074648,24.6268566 42.6105901,24.6723924 C42.7137155,24.7179283 42.7920639,24.79025 42.8456356,24.8893575 C42.8911714,24.975072 42.9233144,25.1083314 42.9420645,25.2891356 C42.9608145,25.4699398 42.9701895,25.6514136 42.9701895,25.8335571 L42.9701895,25.8335571 L42.9701895,28.071511 L44.4246587,28.071511 L44.4246587,25.1344476 C44.4246587,24.5692671 44.2873815,24.1447121 44.012827,23.8607826 C43.7382725,23.576853 43.3572444,23.4348883 42.8697428,23.4348883 C42.5804561,23.4348883 42.3172856,23.4884599 42.0802312,23.5956031 C41.8431768,23.7027463 41.5960778,23.8567647 41.3389341,24.0576582 L41.3389341,24.0576582 L41.3389341,23.5594423 L39.8925006,23.5594423 L39.8925006,28.071511 L41.3389341,28.071511 Z M47.7273072,28.2121365 C48.5094527,28.2121365 49.1168208,27.9985197 49.5494116,27.5712861 C49.9820023,27.1440526 50.1982977,26.5594524 50.1982977,25.8174856 C50.1982977,25.0755188 49.9833416,24.490249 49.5534294,24.0616761 C49.1235173,23.6331032 48.5148099,23.4188168 47.7273072,23.4188168 C46.9505189,23.4188168 46.3444901,23.6317639 45.9092207,24.0576582 C45.4739514,24.4835525 45.2563168,25.0701616 45.2563168,25.8174856 C45.2563168,26.5594524 45.4726121,27.1440526 45.9052029,27.5712861 C46.3377936,27.9985197 46.9451617,28.2121365 47.7273072,28.2121365 Z M47.7393608,27.203651 C47.5866817,27.203651 47.4507438,27.1795438 47.331547,27.1313293 C47.2123501,27.0831149 47.1098944,27.0067753 47.0241798,26.9023107 C46.9357867,26.7924889 46.8688222,26.6471759 46.8232863,26.4663717 C46.7777504,26.2855675 46.7549825,26.0719507 46.7549825,25.8255213 C46.7549825,25.5496275 46.7810987,25.3206089 46.833331,25.1384654 C46.8855633,24.956322 46.955876,24.8130179 47.0442692,24.7085533 C47.1433767,24.5960529 47.2471717,24.5210527 47.3556542,24.4835525 C47.4641367,24.4460524 47.588021,24.4273023 47.7273072,24.4273023 C47.8665934,24.4273023 47.9965046,24.4500703 48.1170407,24.4956061 C48.2375768,24.541142 48.3407021,24.6188208 48.4264167,24.7286426 C48.5121313,24.8357859 48.5790958,24.9790899 48.6273102,25.1585548 C48.6755247,25.3380197 48.6996319,25.5603419 48.6996319,25.8255213 C48.6996319,26.1121294 48.6761943,26.3364606 48.6293192,26.4985147 C48.582444,26.6605688 48.5121313,26.7991853 48.418381,26.9143643 C48.335345,27.0188289 48.2342286,27.0931595 48.1150317,27.1373561 C47.9958349,27.1815527 47.8706113,27.203651 47.7393608,27.203651 Z M52.51255,28.071511 L52.51255,21.8197043 L51.0661165,21.8197043 L51.0661165,28.071511 L52.51255,28.071511 Z M55.8513593,28.2121365 C56.6335048,28.2121365 57.2408729,27.9985197 57.6734637,27.5712861 C58.1060544,27.1440526 58.3223498,26.5594524 58.3223498,25.8174856 C58.3223498,25.0755188 58.1073937,24.490249 57.6774815,24.0616761 C57.2475694,23.6331032 56.638862,23.4188168 55.8513593,23.4188168 C55.074571,23.4188168 54.4685421,23.6317639 54.0332728,24.0576582 C53.5980035,24.4835525 53.3803688,25.0701616 53.3803688,25.8174856 C53.3803688,26.5594524 53.5966642,27.1440526 54.029255,27.5712861 C54.4618457,27.9985197 55.0692138,28.2121365 55.8513593,28.2121365 Z M55.8634129,27.203651 C55.7107338,27.203651 55.5747959,27.1795438 55.455599,27.1313293 C55.3364022,27.0831149 55.2339465,27.0067753 55.1482319,26.9023107 C55.0598388,26.7924889 54.9928743,26.6471759 54.9473384,26.4663717 C54.9018025,26.2855675 54.8790346,26.0719507 54.8790346,25.8255213 C54.8790346,25.5496275 54.9051508,25.3206089 54.9573831,25.1384654 C55.0096154,24.956322 55.0799281,24.8130179 55.1683213,24.7085533 C55.2674288,24.5960529 55.3712238,24.5210527 55.4797063,24.4835525 C55.5881888,24.4460524 55.7120731,24.4273023 55.8513593,24.4273023 C55.9906455,24.4273023 56.1205566,24.4500703 56.2410928,24.4956061 C56.3616289,24.541142 56.4647542,24.6188208 56.5504688,24.7286426 C56.6361834,24.8357859 56.7031479,24.9790899 56.7513623,25.1585548 C56.7995768,25.3380197 56.823684,25.5603419 56.823684,25.8255213 C56.823684,26.1121294 56.8002464,26.3364606 56.7533713,26.4985147 C56.7064961,26.6605688 56.6361834,26.7991853 56.5424331,26.9143643 C56.4593971,27.0188289 56.3582807,27.0931595 56.2390838,27.1373561 C56.119887,27.1815527 55.9946634,27.203651 55.8634129,27.203651 Z M61.0665142,29.7710703 C61.4522298,29.7710703 61.7984363,29.7342399 62.1051338,29.6605789 C62.4118313,29.5869179 62.6736625,29.4670515 62.8906275,29.3009795 C63.1075925,29.1375861 63.2763431,28.911246 63.3968792,28.6219593 C63.5174153,28.3326726 63.5776834,27.9764214 63.5776834,27.5532057 L63.5776834,27.5532057 L63.5776834,23.5594423 L62.1754465,23.5594423 L62.1232142,23.7603358 C61.9598208,23.6585497 61.778347,23.578862 61.5787927,23.5212725 C61.3792385,23.463683 61.157586,23.4348883 60.9138351,23.4348883 C60.6432985,23.4348883 60.3787887,23.4871206 60.1203057,23.5915852 C59.8618227,23.6960499 59.644188,23.8420325 59.4674017,24.0295331 C59.2772225,24.2304267 59.1299006,24.4661418 59.0254359,24.7366784 C58.9209713,25.007215 58.868739,25.3286447 58.868739,25.7009673 C58.868739,26.4777557 59.0401681,27.0563291 59.3830264,27.4366875 C59.7258847,27.8170459 60.2133864,28.0072251 60.8455313,28.0072251 C61.1053536,28.0072251 61.3410687,27.9657071 61.5526766,27.8826711 C61.7642844,27.7996351 61.9571422,27.6871347 62.13125,27.54517 L62.13125,27.54517 L62.13125,27.6295453 C62.13125,27.8170459 62.1124999,27.9777607 62.0749998,28.1116897 C62.0374996,28.2456188 61.9772316,28.3554406 61.8941956,28.4411551 C61.8058024,28.5322269 61.6779002,28.6025396 61.5104889,28.6520934 C61.3430777,28.7016471 61.125443,28.726424 60.857585,28.726424 C60.6566914,28.726424 60.4290121,28.6976292 60.1745469,28.6400397 C59.9200818,28.5824503 59.7044561,28.518834 59.5276698,28.4491909 L59.5276698,28.4491909 L59.3508835,28.4491909 L59.3508835,29.5782125 C59.5732056,29.6317842 59.8363762,29.67732 60.140395,29.7148201 C60.4444139,29.7523203 60.7531203,29.7710703 61.0665142,29.7710703 Z M61.323658,26.8982928 C61.0049069,26.8982928 60.7645043,26.8125782 60.6024502,26.6411491 C60.4403961,26.4697199 60.359369,26.1670403 60.359369,25.7331103 C60.359369,25.3420376 60.4544586,25.037349 60.6446378,24.8190447 C60.834817,24.6007404 61.1200858,24.4915883 61.5004443,24.4915883 C61.5968732,24.4915883 61.7053557,24.5016329 61.8258918,24.5217223 C61.9464279,24.5418117 62.048214,24.5692671 62.13125,24.6040886 L62.13125,24.6040886 L62.13125,26.6491848 C62.016071,26.7241851 61.8888384,26.7844531 61.7495522,26.829989 C61.6102661,26.8755249 61.4683013,26.8982928 61.323658,26.8982928 Z M66.2615798,22.916583 L66.2615798,21.8197043 L64.7347889,21.8197043 L64.7347889,22.916583 L66.2615798,22.916583 Z M66.2214011,28.071511 L66.2214011,23.5594423 L64.7749677,23.5594423 L64.7749677,28.071511 L66.2214011,28.071511 Z M69.8936937,28.1920472 C70.2445877,28.1920472 70.5646781,28.1625828 70.8539648,28.103654 C71.1432515,28.0447252 71.4512882,27.9496356 71.778075,27.8183852 L71.778075,27.8183852 L71.778075,26.6572206 L71.6173602,26.6572206 C71.4512882,26.7831138 71.2249482,26.9009714 70.9383401,27.0107932 C70.651732,27.120615 70.3557488,27.1755259 70.0503906,27.1755259 C69.5682462,27.1755259 69.2032896,27.0817756 68.9555209,26.8942749 C68.7077522,26.7067743 68.5731535,26.4362377 68.5517249,26.0826651 L68.5517249,26.0826651 L71.8624503,26.0826651 L71.8624503,25.5764134 C71.8624503,24.8799824 71.6776283,24.3462753 71.3079842,23.9752919 C70.9383401,23.6043085 70.3865525,23.4188168 69.6526214,23.4188168 C68.8570831,23.4188168 68.2309649,23.6364515 67.7742669,24.0717208 C67.3175689,24.5069901 67.08922,25.0969475 67.08922,25.8415928 C67.08922,26.5942739 67.3302922,27.1741866 67.8124367,27.5813308 C68.2945812,27.988475 68.9883335,28.1920472 69.8936937,28.1920472 Z M70.4240526,25.2348943 L68.547707,25.2348943 C68.5691357,24.9161433 68.6695824,24.6844461 68.8490473,24.5398027 C69.0285122,24.3951594 69.2575308,24.3228377 69.5361032,24.3228377 C69.8361042,24.3228377 70.0570871,24.3991772 70.1990519,24.5518563 C70.3410166,24.7045354 70.4160169,24.9322148 70.4240526,25.2348943 L70.4240526,25.2348943 Z M74.2932209,28.196065 C75.0191162,28.196065 75.5909931,28.0534306 76.0088516,27.7681618 C76.4267102,27.482893 76.6356395,27.1072221 76.6356395,26.6411491 C76.6356395,26.322398 76.5445677,26.0565489 76.3624243,25.8436018 C76.1802808,25.6306546 75.8990298,25.4746273 75.5186714,25.3755198 C75.3472423,25.3326625 75.1764828,25.2971713 75.0063929,25.2690462 C74.8363031,25.2409212 74.6775972,25.2121264 74.5302752,25.182662 C74.2624172,25.1264118 74.0923273,25.0701616 74.0200057,25.0139115 C73.947684,24.9576613 73.9115232,24.8759646 73.9115232,24.7688213 C73.9115232,24.6509638 73.9912109,24.5598921 74.1505865,24.4956061 C74.309962,24.4313202 74.506168,24.3991772 74.7392045,24.3991772 C75.0204555,24.3991772 75.2983582,24.4453828 75.5729127,24.5377938 C75.8474672,24.6302048 76.0918876,24.7500713 76.3061741,24.8973932 L76.3061741,24.8973932 L76.4307281,24.8973932 L76.4307281,23.7563179 C76.2566203,23.6786391 76.0148785,23.6056478 75.7055024,23.537344 C75.3961264,23.4690402 75.0726878,23.4348883 74.7351866,23.4348883 C74.0226842,23.4348883 73.460852,23.578862 73.0496899,23.8668094 C72.6385278,24.1547568 72.4329467,24.5156955 72.4329467,24.9496255 C72.4329467,25.2871267 72.5320542,25.5690473 72.7302692,25.7953873 C72.9284841,26.0217274 73.232503,26.188469 73.6423258,26.2956122 C73.7923263,26.3357909 73.959068,26.3699428 74.1425507,26.3980679 C74.3260335,26.426193 74.4713465,26.4523092 74.5784897,26.4764164 C74.8034904,26.5219523 74.9561695,26.5694971 75.0365269,26.6190508 C75.1168844,26.6686045 75.1570631,26.7482923 75.1570631,26.8581141 C75.1570631,26.9813288 75.0887593,27.0744095 74.9521517,27.1373561 C74.8155441,27.2003028 74.6052755,27.2317761 74.321346,27.2317761 C74.1043809,27.2317761 73.9008088,27.2096778 73.7106296,27.1654812 C73.5204504,27.1212846 73.3503605,27.0683827 73.20036,27.0067753 C73.0262523,26.9371322 72.8916536,26.8721766 72.796564,26.8119086 C72.7014744,26.7516405 72.6177688,26.69606 72.5454471,26.645167 L72.5454471,26.645167 L72.4128574,26.645167 L72.4128574,27.8344567 C72.6110723,27.9255284 72.8735732,28.0085644 73.20036,28.0835647 C73.5271469,28.1585649 73.8914338,28.196065 74.2932209,28.196065 Z" id="Technologies" fill="#EBF4FE" fill-rule="nonzero"></path>
                    <polygon id="Path-6" fill="#EBF4FE" points="80.6078281 27.3424848 81.2073245 27.9548074 94 14.9243741 93.3954223 14.3267129"></polygon>
                    <path d="M20.9351771,4.29449175 L15.3410649,19.4151197 L10.9111049,19.4151197 L7.0264287,8.91501871 L10.0298514,5.9013648 L13.1775961,14.9165044 L16.8863998,4.29449175 L20.9351771,4.29449175 Z M26.7035702,19.4151197 L22.7475129,19.4151197 L22.7475129,4.29449175 L26.7035702,4.29449175 L26.7035702,19.4151197 Z M41.4279659,19.4151197 L30.3324615,19.4151197 L30.3324615,4.29449175 L41.4279659,4.29449175 L41.4279659,7.21909944 L34.2679144,7.21909944 L34.2679144,9.82890561 L40.9128543,9.82890561 L40.9128543,12.7535133 L34.2679144,12.7535133 L34.2679144,16.490512 L41.4279659,16.490512 L41.4279659,19.4151197 Z M57.870329,14.7844909 C57.870329,15.5156465 57.7209481,16.1689377 57.4221819,16.7443842 C57.1234157,17.3198307 56.7130475,17.7971057 56.1910651,18.1762234 C55.5866645,18.6230407 54.9221771,18.941224 54.1975831,19.1307829 C53.4729892,19.3203417 52.5543826,19.4151197 51.4417359,19.4151197 L44.7452848,19.4151197 L44.7452848,4.29449175 L50.8559971,4.2947124 C52.0126595,4.29802225 52.8655236,4.33856789 53.4146135,4.4163504 C53.9881073,4.49758991 54.5564414,4.67699113 55.1196329,4.95455946 C55.703429,5.2456677 56.1378355,5.63662697 56.4228654,6.127449 C56.7078952,6.61827103 56.850408,7.17847674 56.850408,7.80808294 C56.850408,8.53923852 56.6546675,9.18406744 56.2631807,9.74258907 C55.871694,10.3011107 55.318813,10.736074 54.6045213,11.0474922 L54.6045213,11.1287313 C55.607277,11.3250601 56.402258,11.7312515 56.9894881,12.3473178 C57.5767183,12.9633841 57.870329,13.775767 57.870329,14.7844909 Z M52.8016306,8.56969952 C52.8016306,8.31921104 52.7381008,8.06872631 52.6110393,7.81823782 C52.4839778,7.56774934 52.259048,7.38157826 51.9362431,7.25971899 C51.6629615,7.15710067 51.3265011,7.09853475 50.9268529,7.08401975 L50.8596598,7.08200846 C50.430398,7.07185352 49.8277234,7.06677612 49.051618,7.06677612 L48.6807376,7.06677612 L48.6807376,10.2655658 L49.2988716,10.2655658 C49.9238768,10.2655658 50.4561535,10.255411 50.8957176,10.2351011 C51.3161702,10.2156743 51.6517849,10.1528899 51.9025708,10.0467463 L51.9362431,10.0320034 C52.2933889,9.87629431 52.5269039,9.67489105 52.6367949,9.42778754 C52.7466859,9.18068404 52.8016306,8.89465756 52.8016306,8.56969952 Z M53.7700405,14.7235615 C53.7700405,14.2428945 53.6756043,13.8722448 53.4867291,13.6116013 C53.2978539,13.3509579 52.9767708,13.1563245 52.5234703,13.0276953 C52.2267646,12.9432062 51.8224594,12.8961529 51.3105435,12.8865342 L51.2459935,12.8855269 C50.763694,12.8795091 50.2624077,12.876166 49.7421226,12.8754973 L48.6807376,12.875372 L48.6807376,16.6428353 L49.8368293,16.6420243 C50.5069222,16.6406518 51.0144155,16.6375372 51.3593181,16.6326805 C51.8400913,16.6259105 52.2830829,16.5379024 52.6883061,16.3686534 C53.1003974,16.1994044 53.383706,15.9743066 53.5382403,15.6933533 C53.6927745,15.4124 53.7700405,15.0891393 53.7700405,14.7235615 Z M71.9122719,19.4151197 L60.8167675,19.4151197 L60.8167675,4.29449175 L71.9122719,4.29449175 L71.9122719,7.21909944 L64.7522203,7.21909944 L64.7522203,9.82890561 L71.3971603,9.82890561 L71.3971603,12.7535133 L64.7522203,12.7535133 L64.7522203,16.490512 L71.9122719,16.490512 L71.9122719,19.4151197 Z M88.9031259,11.0881117 L88.9031259,15.293953 C88.8619169,15.293953 87.4519386,16.7319964 84.6731908,19.6080834 C84.0422583,19.6893088 83.4123966,19.7299212 82.7835998,19.7299212 C80.1736878,19.7299212 78.1304321,19.0309335 76.6537714,17.6329369 C75.1771107,16.2349404 74.4387914,14.3038385 74.4387914,11.8395734 C74.4387914,9.49039761 75.1839788,7.59652997 76.6743759,6.15791366 C78.164773,4.71929736 80.2423691,4 82.9072265,4 C83.9168504,4 84.8783825,4.08970061 85.7918516,4.26910453 C86.7053208,4.44850844 87.7217976,4.80561843 88.8413125,5.34044519 L88.8413125,8.88450105 L88.3983165,8.88450105 L88.1979195,8.73823413 C88.0263328,8.61425134 87.8115384,8.46160238 87.5535334,8.28028522 C87.2111806,8.03969129 86.8805367,7.83226899 86.5615933,7.65801308 L86.4821012,7.61514007 C86.0837462,7.39850138 85.6184334,7.2123303 85.0861487,7.05662124 C84.553864,6.90091218 83.9889639,6.82305882 83.3914315,6.82305882 C82.6908762,6.82305882 82.0555782,6.92460668 81.4855185,7.12770545 C80.9154587,7.33080422 80.4037863,7.64221767 79.9504858,8.06195513 C79.5177899,8.46815268 79.1761026,8.98435431 78.9254137,9.61057553 C78.6747248,10.2367967 78.5493822,10.959479 78.5493822,11.7786441 C78.5493822,13.450824 78.9992418,14.730327 79.8989747,15.6171917 C80.7987075,16.5040563 82.1276822,16.947482 83.8859386,16.947482 C84.0370388,16.947482 84.2035899,16.9440971 84.3855969,16.9373271 C84.5676039,16.9305571 84.734155,16.9204023 84.8852552,16.9068624 L84.8852552,13.9416352 L81.8254921,13.9416352 L81.8254921,11.0881117 L88.9031259,11.0881117 Z" id="VIEBEG" fill="#EBF4FE" fill-rule="nonzero"></path>
                    <polygon id="Path-5" fill="#EBF4FE" points="0 11.2467251 0.533942764 11.8548057 7.35962084 5.14099455 6.77554409 4.51718369"></polygon>
                </g>
            </g>
        </g>
    </g>
</svg>