<?xml version="1.0" encoding="UTF-8"?>
<svg width="24px" height="24px" viewBox="0 0 24 24" version="1.1" xmlns="http://www.w3.org/2000/svg" xmlns:xlink="http://www.w3.org/1999/xlink">
    <title>5929EC79-20F2-4EA0-8D4D-83092272ACA7</title>
    <defs>
        <rect id="path-1" x="16" y="144" width="288" height="1292" rx="8"></rect>
        <filter x="-9.0%" y="-1.7%" width="118.1%" height="104.0%" filterUnits="objectBoundingBox" id="filter-2">
            <feOffset dx="0" dy="4" in="SourceAlpha" result="shadowOffsetOuter1"></feOffset>
            <feGaussianBlur stdDeviation="8" in="shadowOffsetOuter1" result="shadowBlurOuter1"></feGaussianBlur>
            <feColorMatrix values="0 0 0 0 0.603921569   0 0 0 0 0.650980392   0 0 0 0 0.698039216  0 0 0 0.15 0" type="matrix" in="shadowBlurOuter1"></feColorMatrix>
        </filter>
    </defs>
    <g id="Client" stroke="none" stroke-width="1" fill="none" fill-rule="evenodd">
        <g id="client-orders---responsive" transform="translate(-264.000000, -252.000000)">
            <rect id="Rectangle"  x="0" y="0" width="320" height="1468"></rect>
            <g id="Rectangle">
                <use  fill-opacity="1" filter="url(#filter-2)" xlink:href="#path-1"></use>
                <use  fill-rule="evenodd" xlink:href="#path-1"></use>
            </g>
            <g id="Group-Copy-5" transform="translate(32.000000, 231.500000)" fill="#8FA2B4">
                <g id="more-actions" transform="translate(232.000000, 20.500000)">
                    <path d="M4,14 C5.1045695,14 6,13.1045695 6,12 C6,10.8954305 5.1045695,10 4,10 C2.8954305,10 2,10.8954305 2,12 C2,13.1045695 2.8954305,14 4,14 Z M12,14 C13.1045695,14 14,13.1045695 14,12 C14,10.8954305 13.1045695,10 12,10 C10.8954305,10 10,10.8954305 10,12 C10,13.1045695 10.8954305,14 12,14 Z M20,14 C21.1045695,14 22,13.1045695 22,12 C22,10.8954305 21.1045695,10 20,10 C18.8954305,10 18,10.8954305 18,12 C18,13.1045695 18.8954305,14 20,14 Z" id="Combined-Shape"></path>
                </g>
            </g>
        </g>
    </g>
</svg>