<?xml version="1.0" encoding="UTF-8"?>
<svg width="24px" height="24px" viewBox="0 0 24 24" version="1.1" xmlns="http://www.w3.org/2000/svg" xmlns:xlink="http://www.w3.org/1999/xlink">
    <title>044002A3-6005-4F0F-BD24-7040C96B435E</title>
    <g id="Client" stroke="none" stroke-width="1" fill="none" fill-rule="evenodd">
        <g id="orders-client" transform="translate(-1098.000000, -20.000000)">
            <g id="orders" transform="translate(1098.000000, 20.000000)">
                <rect id="Rectangle" x="0" y="0" width="24" height="24"></rect>
                <path d="M17,4 C18.1045695,4 19,4.8954305 19,6 L19,20 L16,19 L14,20 L12,19 L10,20 L8,19 L5,20 L5,6 C5,4.8954305 5.8954305,4 7,4 L17,4 Z M17,5.5 L7,5.5 C6.75454011,5.5 6.55039163,5.67687516 6.50805567,5.91012437 L6.5,6 L6.5,17.918 L8.11509458,17.3804963 L10,18.323 L12,17.322949 L14,18.323 L15.8849054,17.3804963 L17.5,17.918 L17.5,6 C17.5,5.75454011 17.3231248,5.55039163 17.0898756,5.50805567 L17,5.5 Z M12,12.25 C12.4142136,12.25 12.75,12.5857864 12.75,13 C12.75,13.3796958 12.4678461,13.693491 12.1017706,13.7431534 L12,13.75 L9,13.75 C8.58578644,13.75 8.25,13.4142136 8.25,13 C8.25,12.6203042 8.53215388,12.306509 8.89822944,12.2568466 L9,12.25 L12,12.25 Z M15,9.25 C15.4142136,9.25 15.75,9.58578644 15.75,10 C15.75,10.3796958 15.4678461,10.693491 15.1017706,10.7431534 L15,10.75 L9,10.75 C8.58578644,10.75 8.25,10.4142136 8.25,10 C8.25,9.62030423 8.53215388,9.30650904 8.89822944,9.25684662 L9,9.25 L15,9.25 Z" id="Combined-Shape" fill="#204569" fill-rule="nonzero"></path>
            </g>
        </g>
    </g>
</svg>