<?xml version="1.0" encoding="UTF-8"?>
<svg width="32px" height="32px" viewBox="0 0 32 32" version="1.1" xmlns="http://www.w3.org/2000/svg" xmlns:xlink="http://www.w3.org/1999/xlink">
    <title>Group 2</title>
    <g id="Symbols" stroke="none" stroke-width="1" fill="none" fill-rule="evenodd">
        <g id="invoices_inactive" transform="translate(-16.000000, -16.000000)">
            <g id="Group-2" transform="translate(16.000000, 16.000000)">
                <rect id="Rectangle-Copy" opacity="0.200000003" x="0" y="0" width="32" height="32"></rect>
                <g id="invoice" transform="translate(4.000000, 0.000000)" fill="#FFFFFF" fill-rule="nonzero">
                    <path d="M23.2167238,0.822132295 C22.7374008,0.598010665 22.1725882,0.685223706 21.7805435,1.0437578 L19.7118744,2.90261337 C19.6556018,2.95344352 19.5707085,2.95314096 19.5147341,2.90200824 L16.7000621,0.347188079 C16.1910003,-0.11572936 15.420327,-0.11572936 14.9112652,0.347188079 L12.0991273,2.8996634 C12.0425566,2.95094739 11.957067,2.95094739 11.9004963,2.8996634 L9.08806036,0.347188079 C8.57899856,-0.11565372 7.80832522,-0.11565372 7.29926343,0.347188079 L4.48421879,2.90200824 C4.42787169,2.95314096 4.34275477,2.95336788 4.28610953,2.90253773 L2.21557709,1.0437578 C1.66626736,0.548012556 0.824936542,0.598010665 0.336445914,1.15547823 C0.117392823,1.40546878 -0.00245657078,1.72905715 3.81778211e-05,2.06353769 L3.81778211e-05,29.9364623 C-0.00484163335,30.6836353 0.587995482,31.2933701 1.32423449,31.2983624 C1.65404392,31.3006316 1.97289697,31.1786997 2.21930375,30.9562422 L4.28797286,29.0973866 C4.34424543,29.0465565 4.42913876,29.046859 4.48511319,29.0979918 L7.29978516,31.6528119 C7.80884695,32.1157294 8.5795203,32.1157294 9.08858209,31.6528119 L11.9010181,29.1003366 C11.9575888,29.0490526 12.0430784,29.0490526 12.0996491,29.1003366 L14.912085,31.6527363 C15.4212214,32.1154268 16.1918202,32.1154268 16.700882,31.6527363 L19.5160757,29.0979161 C19.5724228,29.0467834 19.6575397,29.0465565 19.7141849,29.0973866 L21.7847174,30.9561666 C22.3342507,31.4516849 23.175507,31.4013086 23.663774,30.8436141 C23.8824544,30.5938505 24.0021548,30.2706403 23.9998868,29.9364623 L23.9998868,2.06353769 C24.0067758,1.52808139 23.6988046,1.03982451 23.2167238,0.822132295 Z M4.93469749,10.8564729 L12.3571613,10.8564729 C12.686449,10.8564729 12.9534269,11.1274158 12.9534269,11.4615937 C12.9534269,11.7957717 12.686449,12.0667146 12.3571613,12.0667146 L4.93469749,12.0667146 C4.60540979,12.0667146 4.33843184,11.7957717 4.33843184,11.4615937 C4.33843184,11.1274158 4.60540979,10.8564729 4.93469749,10.8564729 Z M19.0651498,21.1435271 L4.93469749,21.1435271 C4.60540979,21.1435271 4.33843184,20.8725842 4.33843184,20.5384063 C4.33843184,20.2042283 4.60540979,19.9332854 4.93469749,19.9332854 L19.0651498,19.9332854 C19.3944375,19.9332854 19.6614154,20.2042283 19.6614154,20.5384063 C19.6614154,20.8725842 19.3944375,21.1435271 19.0651498,21.1435271 Z M19.0651498,16.6051208 L4.93469749,16.6051208 C4.60540979,16.6051208 4.33843184,16.334178 4.33843184,16 C4.33843184,15.665822 4.60540979,15.3948792 4.93469749,15.3948792 L19.0651498,15.3948792 C19.3944375,15.3948792 19.6614154,15.665822 19.6614154,16 C19.6614154,16.334178 19.3944375,16.6051208 19.0651498,16.6051208 Z" id="Shape"></path>
                </g>
            </g>
        </g>
    </g>
</svg>