<?xml version="1.0" encoding="UTF-8"?>
<svg width="64px" height="64px" viewBox="0 0 64 64" version="1.1" xmlns="http://www.w3.org/2000/svg" xmlns:xlink="http://www.w3.org/1999/xlink">
    <title>payments_inactive</title>
    <g id="payments_inactive" stroke="none" stroke-width="1" fill="none" fill-rule="evenodd">
        <g id="Group">
            <rect id="Rectangle" fill="none" opacity="0.200000003" x="0" y="0" width="64" height="64" rx="10"></rect>
            <rect id="Rectangle" x="16" y="16" width="32" height="32"></rect>
            <path d="M32,16 C40.836556,16 48,23.163444 48,32 C48,40.836556 40.836556,48 32,48 C23.163444,48 16,40.836556 16,32 C16,23.163444 23.163444,16 32,16 Z M33.5652174,23 L30.2391304,23 L30.2391304,24.4438503 C28.9565217,24.6720143 27.9619565,25.1639929 27.2554348,25.9197861 C26.548913,26.6755793 26.1956522,27.6417112 26.1956522,28.8181818 C26.1956522,29.1818182 26.2300725,29.5222816 26.298913,29.8395722 C26.3677536,30.1568627 26.4547101,30.4349376 26.5597826,30.6737968 C26.6648551,30.912656 26.8115942,31.14082 27,31.3582888 C27.1884058,31.5757576 27.3641304,31.7575758 27.5271739,31.9037433 C27.6902174,32.0499109 27.9094203,32.1942959 28.1847826,32.3368984 C28.4601449,32.4795009 28.6902174,32.5918004 28.875,32.6737968 C29.0597826,32.7557932 29.3134058,32.8467023 29.6358696,32.9465241 C29.9583333,33.0463458 30.2047101,33.1176471 30.375,33.1604278 C30.5452899,33.2032086 30.7934783,33.2638146 31.1195652,33.342246 C31.4384058,33.4206774 31.6684783,33.4777184 31.8097826,33.513369 C31.951087,33.5490196 32.1467391,33.6042781 32.3967391,33.6791444 C32.6467391,33.7540107 32.8297101,33.8253119 32.9456522,33.8930481 C33.0615942,33.9607843 33.1865942,34.0427807 33.3206522,34.1390374 C33.4547101,34.2352941 33.548913,34.3440285 33.6032609,34.4652406 C33.6576087,34.5864528 33.6847826,34.7219251 33.6847826,34.8716578 C33.6847826,35.2352941 33.5199275,35.5240642 33.1902174,35.7379679 C32.8605072,35.9518717 32.4637681,36.0588235 32,36.0588235 C31.5072464,36.0588235 31.0923913,35.9286988 30.7554348,35.6684492 C30.4184783,35.4081996 30.25,35.0427807 30.25,34.5721925 L30.25,34.5721925 L26,34.5721925 C26,35.8912656 26.3876812,36.9750446 27.1630435,37.8235294 C27.9384058,38.6720143 29.0144928,39.2210339 30.3913043,39.4705882 L30.3913043,39.4705882 L30.3913043,41 L33.7173913,41 L33.7173913,39.4705882 C35.0434783,39.228164 36.0887681,38.7076649 36.8532609,37.9090909 C37.6177536,37.1105169 38,36.0730838 38,34.7967914 L38,34.7967914 L38,34.6470588 C37.9565217,33.0356506 37.1956522,31.8520499 35.7173913,31.0962567 C35.1304348,30.7967914 34.2028986,30.486631 32.9347826,30.1657754 L32.9347826,30.1657754 L32.923913,30.1657754 C32.5543478,30.0730838 32.2789855,30.0017825 32.0978261,29.9518717 C31.9166667,29.9019608 31.6938406,29.8306595 31.4293478,29.7379679 C31.1648551,29.6452763 30.9710145,29.5561497 30.8478261,29.4705882 C30.7246377,29.3850267 30.615942,29.2745098 30.5217391,29.1390374 C30.4275362,29.0035651 30.3804348,28.8538324 30.3804348,28.6898396 C30.3804348,28.3903743 30.5235507,28.1604278 30.8097826,28 C31.0960145,27.8395722 31.4384058,27.7593583 31.8369565,27.7593583 C32.2862319,27.7593583 32.6576087,27.8698752 32.951087,28.0909091 C33.2445652,28.311943 33.3913043,28.6292335 33.3913043,29.0427807 L33.3913043,29.0427807 L37.5217391,29.0320856 C37.5217391,27.8128342 37.1793478,26.8074866 36.4945652,26.0160428 C35.8097826,25.2245989 34.8333333,24.7076649 33.5652174,24.4652406 L33.5652174,24.4652406 L33.5652174,23 Z" id="Combined-Shape" fill="#FFFFFF"></path>
            <g id="$" transform="translate(26.000000, 23.000000)"></g>
        </g>
    </g>
</svg>