<?xml version="1.0" encoding="UTF-8"?>
<svg width="24px" height="24px" viewBox="0 0 24 24" version="1.1" xmlns="http://www.w3.org/2000/svg" xmlns:xlink="http://www.w3.org/1999/xlink">
    <title>5F018D84-DD99-4C58-A483-CF93DE49E850</title>
    <g id="Admin" stroke="none" stroke-width="1" fill="none" fill-rule="evenodd">
        <g id="orders" transform="translate(-1288.000000, -353.000000)">
            <g id="table" transform="translate(224.000000, 202.000000)">
                <g id="1" transform="translate(40.000000, 151.000000)">
                    <g id="print" transform="translate(1024.000000, 0.000000)">
                        <rect id="Rectangle" x="0" y="0" width="24" height="24"></rect>
                        <g id="printer" transform="translate(3.000000, 3.000000)" fill="#3796F6" fill-rule="nonzero">
                            <path d="M13.3846154,5.07692308 L4.61538462,5.07692308 C4.23692308,5.07692308 3.92307692,4.76307692 3.92307692,4.38461538 L3.92307692,2.76923077 C3.92307692,0.406153846 5.02153846,0 7.38461538,0 L10.6153846,0 C12.9784615,0 14.0769231,0.406153846 14.0769231,2.76923077 L14.0769231,4.38461538 C14.0769231,4.76307692 13.7630769,5.07692308 13.3846154,5.07692308 Z M5.30769231,3.69230769 L12.6923077,3.69230769 L12.6923077,2.76923077 C12.6923077,1.2 12.1846154,1.38461538 10.6153846,1.38461538 L7.38461538,1.38461538 C5.81538462,1.38461538 5.30769231,1.2 5.30769231,2.76923077 L5.30769231,3.69230769 Z" id="Shape"></path>
                            <path d="M10.3846154,18 L7.61538462,18 C5.38153846,18 4.15384615,17.2338462 4.15384615,15 L4.15384615,11.7692308 C4.15384615,11.3907692 4.46769231,11.0769231 4.84615385,11.0769231 L13.1538462,11.0769231 C13.5323077,11.0769231 13.8461538,11.3907692 13.8461538,11.7692308 L13.8461538,15 C13.8461538,17.2338462 12.6184615,18 10.3846154,18 Z M5.53846154,12.4615385 L5.53846154,15 C5.53846154,16.4584615 6.15692308,16.6153846 7.61538462,16.6153846 L10.3846154,16.6153846 C11.8430769,16.6153846 12.4615385,16.4584615 12.4615385,15 L12.4615385,12.4615385 L5.53846154,12.4615385 Z" id="Shape"></path>
                            <path d="M14.5384615,15.2307692 L13.1538462,15.2307692 C12.7753846,15.2307692 12.4615385,14.9169231 12.4615385,14.5384615 L12.4615385,12.4615385 L5.53846154,12.4615385 L5.53846154,14.5384615 C5.53846154,14.9169231 5.22461538,15.2307692 4.84615385,15.2307692 L3.46153846,15.2307692 C1.22769231,15.2307692 0,14.0030769 0,11.7692308 L0,7.15384615 C0,4.92 1.22769231,3.69230769 3.46153846,3.69230769 L14.5384615,3.69230769 C16.7723077,3.69230769 18,4.92 18,7.15384615 L18,11.7692308 C18,14.0030769 16.7723077,15.2307692 14.5384615,15.2307692 Z M13.8461538,13.8461538 L14.5384615,13.8461538 C15.9969231,13.8461538 16.6153846,13.2276923 16.6153846,11.7692308 L16.6153846,7.15384615 C16.6153846,5.69538462 15.9969231,5.07692308 14.5384615,5.07692308 L3.46153846,5.07692308 C2.00307692,5.07692308 1.38461538,5.69538462 1.38461538,7.15384615 L1.38461538,11.7692308 C1.38461538,13.2276923 2.00307692,13.8461538 3.46153846,13.8461538 L4.15384615,13.8461538 L4.15384615,11.7692308 C4.15384615,11.3907692 4.46769231,11.0769231 4.84615385,11.0769231 L13.1538462,11.0769231 C13.5323077,11.0769231 13.8461538,11.3907692 13.8461538,11.7692308 L13.8461538,13.8461538 Z" id="Shape"></path>
                            <path d="M14.0769231,12.4615385 L3.92307692,12.4615385 C3.54461538,12.4615385 3.23076923,12.1476923 3.23076923,11.7692308 C3.23076923,11.3907692 3.54461538,11.0769231 3.92307692,11.0769231 L14.0769231,11.0769231 C14.4553846,11.0769231 14.7692308,11.3907692 14.7692308,11.7692308 C14.7692308,12.1476923 14.4553846,12.4615385 14.0769231,12.4615385 Z" id="Path"></path>
                            <path d="M6.69230769,8.76923077 L3.92307692,8.76923077 C3.54461538,8.76923077 3.23076923,8.45538462 3.23076923,8.07692308 C3.23076923,7.69846154 3.54461538,7.38461538 3.92307692,7.38461538 L6.69230769,7.38461538 C7.07076923,7.38461538 7.38461538,7.69846154 7.38461538,8.07692308 C7.38461538,8.45538462 7.07076923,8.76923077 6.69230769,8.76923077 Z" id="Path"></path>
                        </g>
                    </g>
                </g>
            </g>
        </g>
    </g>
</svg>