<?xml version="1.0" encoding="UTF-8"?>
<svg width="20px" height="20px" viewBox="0 0 20 20" version="1.1" xmlns="http://www.w3.org/2000/svg" xmlns:xlink="http://www.w3.org/1999/xlink">
    <title>B9AC1BBF-9995-418C-9C10-0095A20266B8</title>
    <g id="Client" stroke="none" stroke-width="1" fill="none" fill-rule="evenodd">
        <g id="product-page" transform="translate(-872.000000, -574.000000)">
            <g id="product" transform="translate(64.000000, 192.000000)">
                <g id="buy" transform="translate(544.000000, 368.000000)">
                    <g id="complete_btn" transform="translate(250.000000, 0.000000)">
                        <g id="shopping_cart-copy" transform="translate(14.000000, 14.000000)">
                            <rect id="Rectangle" x="0" y="0" width="20" height="20"></rect>
                            <g id="Group-5" transform="translate(3.333333, 3.333333)" stroke="#FFFFFF" stroke-width="2">
                                <path d="M0,0 L1.04664112,0 C1.41464797,1.54442843e-16 1.7390837,0.241390128 1.8448297,0.593876762 L3.96701397,7.66782433 C4.08265458,8.05329305 4.45724909,8.3010464 4.85722881,8.25660421 L11.1110124,7.56173937 C11.4471313,7.52439282 11.7273488,7.28761243 11.820256,6.9624372 L13.0298283,2.72893427 C13.1562652,2.2864051 12.9000218,1.82516695 12.4574926,1.69873004 C12.3830414,1.67745827 12.3059888,1.66666667 12.2285583,1.66666667 L2.5,1.66666667 L2.5,1.66666667" id="Path-4" stroke-linecap="round" stroke-linejoin="round"></path>
                                <circle id="Oval" cx="5" cy="11.6666667" r="1"></circle>
                                <circle id="Oval-Copy" cx="10" cy="11.6666667" r="1"></circle>
                            </g>
                        </g>
                    </g>
                </g>
            </g>
        </g>
    </g>
</svg>