<?xml version="1.0" encoding="UTF-8"?>
<svg width="16px" height="16px" viewBox="0 0 16 16" version="1.1" xmlns="http://www.w3.org/2000/svg" xmlns:xlink="http://www.w3.org/1999/xlink">
    <title>A58AC9F6-503A-4008-9B89-7FDD2C83AA4E</title>
    <g id="Client" stroke="none" stroke-width="1" fill="none" fill-rule="evenodd">
        <g id="subcategory-page" transform="translate(-1300.000000, -942.000000)">
            <g id="products" transform="translate(400.000000, 192.000000)">
                <g id="row2" transform="translate(0.000000, 416.000000)">
                    <g id="product3" transform="translate(672.000000, 0.000000)">
                        <g id="complete_btn" transform="translate(218.000000, 324.000000)">
                            <g id="shopping_cart-copy-6" transform="translate(10.000000, 10.000000)">
                                <rect id="Rectangle" x="0" y="0" width="16" height="16"></rect>
                                <g id="Group-5" transform="translate(2.666667, 2.666667)" stroke="#3796F6" stroke-width="1.5">
                                    <path d="M0,0 L0.837312899,0 C1.13171838,5.69408931e-17 1.39126696,0.193112102 1.47586376,0.47510141 L3.17361117,6.13425947 C3.26612366,6.44263444 3.56579927,6.64083712 3.88578305,6.60528337 L8.88880988,6.04939149 C9.15770501,6.01951426 9.38187906,5.83008994 9.45620483,5.56994976 L10.4238626,2.18314742 C10.5250122,1.82912408 10.3200174,1.46013356 9.9659941,1.35898403 C9.90643312,1.34196661 9.84479103,1.33333333 9.78284668,1.33333333 L2,1.33333333 L2,1.33333333" id="Path-4" stroke-linecap="round" stroke-linejoin="round"></path>
                                    <circle id="Oval" cx="4" cy="9.33333333" r="1"></circle>
                                    <circle id="Oval-Copy" cx="8" cy="9.33333333" r="1"></circle>
                                </g>
                            </g>
                        </g>
                    </g>
                </g>
            </g>
        </g>
    </g>
</svg>