<?xml version="1.0" encoding="UTF-8"?>
<svg width="24px" height="24px" viewBox="0 0 24 24" version="1.1" xmlns="http://www.w3.org/2000/svg" xmlns:xlink="http://www.w3.org/1999/xlink">
    <title>DCB53040-E32C-4521-872C-AD64973A603F</title>
    <g id="Client" stroke="none" stroke-width="1" fill="none" fill-rule="evenodd">
        <g id="shopping-cart" transform="translate(-1138.000000, -20.000000)">
            <g id="shopping_cart" transform="translate(1138.000000, 20.000000)">
                <rect id="Rectangle" x="0" y="0" width="24" height="24"></rect>
                <g id="Group-5" transform="translate(4.000000, 4.000000)" stroke="#204569" stroke-width="1.5">
                    <path d="M0,0 L1.25596935,0 C1.69757757,3.62967096e-16 2.08690045,0.289668153 2.21379563,0.712652114 L4.76041676,9.2013892 C4.8991855,9.66395166 5.34869891,9.96125568 5.82867457,9.90792505 L13.3332148,9.07408724 C13.7365575,9.02927139 14.0728186,8.74513492 14.1843072,8.35492463 L15.635794,3.27472113 C15.7875183,2.74368612 15.4800262,2.19020034 14.9489911,2.03847605 C14.8596497,2.01294992 14.7671865,2 14.67427,2 L3,2 L3,2" id="Path-4" stroke-linecap="round" stroke-linejoin="round"></path>
                    <circle id="Oval" cx="6" cy="14" r="1.25"></circle>
                    <circle id="Oval-Copy" cx="12" cy="14" r="1.25"></circle>
                </g>
            </g>
        </g>
    </g>
</svg>