<?xml version="1.0" encoding="UTF-8"?>
<svg width="32px" height="32px" viewBox="0 0 32 32" version="1.1" xmlns="http://www.w3.org/2000/svg" xmlns:xlink="http://www.w3.org/1999/xlink">
    <title>2E9106A9-63D6-4740-A19C-A752CFA42FA8</title>
    <defs>
        <linearGradient x1="50.0007039%" y1="100.002858%" x2="50.0007039%" y2="0.00300051009%" id="linearGradient-1">
            <stop stop-color="#F9F9F9" offset="0%"></stop>
            <stop stop-color="#FFFFFF" offset="100%"></stop>
        </linearGradient>
    </defs>
    <g id="Client" stroke="none" stroke-width="1" fill="none" fill-rule="evenodd">
        <g id="homepage-not-authorised" transform="translate(-1360.000000, -2550.000000)">
            <g id="support" transform="translate(1344.000000, 2534.000000)">
                <g id="Group" transform="translate(16.000000, 16.000000)">
                    <path d="M8.83778771,26.9216944 L9.32157569,27.2071639 C11.3544129,28.4080726 13.6850365,29.0431808 16.0617241,29.0444609 L16.0669088,29.0444609 C23.3659807,29.0444609 29.3065517,23.1322672 29.309308,15.8659196 C29.3104554,12.3443423 27.9344106,9.03343153 25.4341811,6.54228216 C22.9337679,4.05158997 19.6093445,2.67896621 16.0716392,2.67750325 C8.76705611,2.67750325 2.82648511,8.58878263 2.82372853,15.8551302 C2.82276507,18.3451367 3.52249866,20.7702242 4.84830001,22.8682026 L5.16342353,23.3668896 L3.82531393,28.2298656 L8.83778771,26.9216944 Z M0.000183705328,31.9967998 L2.26049405,23.7808986 C0.866308395,21.3763383 0.132864878,18.6486463 0.134013036,15.8543896 C0.137411584,7.11227945 7.28428362,0 16.0672353,0 C20.329107,0.00182870205 24.3293824,1.65296378 27.3375571,4.64993214 C30.3454103,7.64685478 32.0013761,11.630545 31.9999991,15.8671905 C31.9962783,24.6088435 24.8478906,31.7224945 16.0672353,31.7224945 C16.0665877,31.7224945 16.0675593,31.7224945 16.0672353,31.7224945 L16.0604304,31.7224945 C13.3939476,31.7215801 10.7738503,31.0557497 8.44676312,29.7922994 L0.000183705328,31.9967998 Z" id="Shape" fill="#FFFFFF" fill-rule="nonzero"></path>
                    <path d="M0.133829331,15.858047 C0.132864878,18.652258 0.866308395,21.38027 2.26049405,23.784556 L0,32 L8.44631166,29.795454 C10.7735367,31.0587671 13.3934961,31.7245518 16.0599789,31.725649 L16.0667838,31.725649 C24.8474392,31.725649 31.9958727,24.611998 31.9995478,15.870345 C32.0010165,11.633471 30.3450048,7.64987213 27.3371056,4.65308665 C24.3287472,1.65630116 20.3287474,0.00498321309 16.0667838,0.00315451104 C7.28429143,0.00315451104 0.137235687,7.11543396 0.13356158,15.8575441 M5.16341343,23.3703093 L4.84812457,22.8718051 C3.52232322,20.7735524 2.82258963,18.3485106 2.82355309,15.8587328 C2.82644745,8.59284235 8.76688067,2.68110579 16.0714637,2.68110579 C19.6088016,2.68247732 22.9333169,4.05523823 25.4340057,6.54588471 C27.9344189,9.03671405 29.31028,12.3478991 29.309316,15.8690649 C29.3060754,23.1354125 23.3655297,29.0476063 16.0664578,29.0476063 L16.0612731,29.0476063 C13.6846314,29.0462347 11.3538241,28.4111722 9.3211247,27.2104465 L8.83733672,26.9249769 L3.82493688,28.2331389 L5.16341343,23.3703093 Z" id="Shape" fill="url(#linearGradient-1)" fill-rule="nonzero"></path>
                    <path d="M12.0847794,9.22900207 C11.7865062,8.5690235 11.4726732,8.55581113 11.1889863,8.54419887 C10.9568149,8.5343696 10.6912826,8.53500115 10.426058,8.53500115 C10.160512,8.53500115 9.72921781,8.63419844 9.36451681,9.03077077 C8.99948973,9.42736138 7.97102006,10.3860219 7.97102006,12.3357383 C7.97102006,14.2856375 9.39776748,16.1697036 9.59653664,16.4343625 C9.79565484,16.6985413 12.3506928,20.827682 16.3968486,22.4160469 C19.7598501,23.7361412 20.4441984,23.4735853 21.1741056,23.407432 C21.9040128,23.3414661 23.5295294,22.4491007 23.8611634,21.523686 C24.1929766,20.5984085 24.1929766,19.8052547 24.0934955,19.63962 C23.9940145,19.4744653 23.7284685,19.3752765 23.3303836,19.1772327 C22.9321426,18.9790196 20.9749598,18.0202129 20.6101211,17.887952 C20.245094,17.7558603 19.9796903,17.6898944 19.7141443,18.0866496 C19.4487589,18.4829156 18.6863129,19.3752902 18.4539716,19.6396291 C18.2218003,19.9044526 17.9894727,19.9375155 17.5913833,19.7392979 C17.1931423,19.5404403 15.9109388,19.1223853 14.3899046,17.7724832 C13.2063831,16.7220767 12.4074486,15.4248869 12.1751073,15.0281043 C11.9429359,14.6318383 12.1503208,14.4171807 12.3499259,14.2195894 C12.5287951,14.0420179 12.7481669,13.7568821 12.9472897,13.525597 C13.145921,13.294161 13.2121881,13.1290064 13.3448831,12.8646583 C13.4777388,12.6001549 13.4113109,12.3687143 13.3118299,12.170483 C13.2121881,11.97227 12.4385407,10.0125232 12.0845405,9.22887863" id="Path" fill="#FFFFFF"></path>
                </g>
            </g>
        </g>
    </g>
</svg>