<?xml version="1.0" encoding="UTF-8"?>
<svg width="12px" height="12px" viewBox="0 0 12 12" version="1.1" xmlns="http://www.w3.org/2000/svg" xmlns:xlink="http://www.w3.org/1999/xlink">
    <title>95B4CAE2-2C52-4ECF-874C-756DA82A2204</title>
    <defs>
        <rect id="path-1" x="0" y="0" width="592" height="228" rx="6"></rect>
        <filter x="-4.4%" y="-9.6%" width="108.8%" height="122.8%" filterUnits="objectBoundingBox" id="filter-3">
            <feOffset dx="0" dy="4" in="SourceAlpha" result="shadowOffsetOuter1"></feOffset>
            <feGaussianBlur stdDeviation="8" in="shadowOffsetOuter1" result="shadowBlurOuter1"></feGaussianBlur>
            <feColorMatrix values="0 0 0 0 0.603921569   0 0 0 0 0.650980392   0 0 0 0 0.698039216  0 0 0 0.25 0" type="matrix" in="shadowBlurOuter1"></feColorMatrix>
        </filter>
    </defs>
    <g id="Admin" stroke="none" stroke-width="1" fill="none" fill-rule="evenodd">
        <g id="popup" transform="translate(-198.000000, -232.000000)">
            <rect id="Rectangle" fill="#FFFFFF" x="0" y="0" width="720" height="576" rx="6"></rect>
            <g id="email-copy-3" transform="translate(64.000000, 238.000000)"></g>
            <g id="sales-rep-options" transform="translate(64.000000, 210.000000)">
                <mask id="mask-2" fill="white">
                    <use xlink:href="#path-1"></use>
                </mask>
                <g id="Rectangle">
                    <use fill="black" fill-opacity="1" filter="url(#filter-3)" xlink:href="#path-1"></use>
                    <use fill="#FFFFFF" fill-rule="evenodd" xlink:href="#path-1"></use>
                </g>
                <g id="Group-2" mask="url(#mask-2)">
                    <g transform="translate(16.000000, 16.000000)" id="Group">
                        <g transform="translate(112.000000, 0.000000)">
                            <rect id="Rectangle" fill="#FDA45C" opacity="0.100000001" x="0" y="0" width="66" height="24" rx="12"></rect>
                            <g id="Group" transform="translate(6.000000, 6.000000)">
                                <circle id="Oval" stroke="#FDA45C" cx="6" cy="6" r="5.5"></circle>
                                <path d="M6,9.33333333 C6,7.11111111 6,6 6,6 C6,6 7.11111111,6 9.33333333,6 C9.33333333,4.15905083 7.84094917,2.66666667 6,2.66666667 C4.15905083,2.66666667 2.66666667,4.15905083 2.66666667,6 C2.66666667,7.84094917 4.15905083,9.33333333 6,9.33333333 Z" id="Oval" fill="#FDA45C" transform="translate(6.000000, 6.000000) scale(-1, -1) translate(-6.000000, -6.000000) "></path>
                            </g>
                        </g>
                    </g>
                </g>
            </g>
        </g>
    </g>
</svg>